<svg width="41" height="39" viewBox="0 0 41 39" fill="none" xmlns="http://www.w3.org/2000/svg">
<path d="M22.6346 1.05231C21.3042 0.318754 19.6941 0.315733 18.361 1.04429L2.83056 9.53154C1.39437 10.3164 0.500195 11.8285 0.500173 13.4722L0.5 26.4145C0.499977 28.131 1.47426 29.6971 3.0093 30.4478L5.20556 31.522C5.74504 30.2223 6.39827 28.9569 7.18583 27.7913C11.5634 21.3126 14.6449 19.2185 17.5134 17.3011C17.7279 17.1577 17.7354 16.8441 17.5283 16.6901L10.8798 11.7476C10.7736 11.6686 10.7808 11.5067 10.8936 11.4377L12.9095 10.203C13.0121 10.1401 13.1386 10.131 13.249 10.1786L17.6143 12.0569C17.727 12.1054 17.8561 12.0949 17.9596 12.029L19.4955 11.0496C19.583 10.9939 19.6989 11.0208 19.7533 11.1095L20.6671 12.6014C20.7107 12.6726 20.7019 12.7643 20.6457 12.8259L20.4863 13.0003C20.3989 13.0959 20.4328 13.2498 20.5522 13.2994L22.5868 14.1447C22.6509 14.1714 22.7243 14.1596 22.7786 14.1161C23.6691 13.4036 25.9069 12.1935 28.6451 12.3252C28.8662 12.3358 29.0184 12.5457 28.941 12.7543C28.5396 13.8349 27.2638 15.7381 24.4118 17.102C24.3531 17.1301 24.3119 17.1869 24.3048 17.2518L24.0754 19.347C24.0633 19.4576 24.1494 19.5543 24.2601 19.5543H24.5246C24.5932 19.5543 24.6561 19.5922 24.6885 19.653L25.4803 21.1404C25.5265 21.2273 25.4977 21.3354 25.4144 21.3874L23.7521 22.425C23.7045 22.4547 23.6728 22.5044 23.6658 22.5603L23.0552 27.4251C23.0475 27.4865 23.01 27.5401 22.9552 27.5682L20.7077 28.7196C20.5892 28.7803 20.4476 28.6999 20.438 28.5666L19.8268 20.0853C19.8176 19.9572 19.6866 19.8763 19.5713 19.9314C17.3589 20.988 13.2208 24.3142 12.645 30.1349C12.4581 32.0247 12.5715 33.7465 12.9073 35.2888L18.5494 38.0483C19.7808 38.6506 21.2191 38.6506 22.4506 38.0483L37.9907 30.4478C39.5257 29.6971 40.5 28.1311 40.5 26.4145V13.5585C40.5 11.9207 39.6123 10.4131 38.1842 9.62575L22.6346 1.05231Z" fill="#316BFF"/>
</svg>
